<svg xmlns="http://www.w3.org/2000/svg" viewBox="0 0 64 64" role="img" aria-label="Idea Research">
  <title>Idea Research</title>
  <desc>Research workbench icon using Iconify octicon:telescope-16.</desc>
  <defs>
    <linearGradient id="ir-bg" x1="0" y1="0" x2="1" y2="1">
      <stop offset="0" stop-color="#17142F"/>
      <stop offset="0.58" stop-color="#3B1E78"/>
      <stop offset="1" stop-color="#B45309"/>
    </linearGradient>
    <filter id="ir-soft-shadow" x="-30%" y="-30%" width="160%" height="160%">
      <feDropShadow dx="0" dy="2" stdDeviation="1.2" flood-color="#06150C" flood-opacity="0.35"/>
    </filter>
  </defs>
  <rect width="64" height="64" rx="18" fill="url(#ir-bg)"/>
  <path d="M8 45C19 34 31 33 56 20M6 53C21 39 36 38 58 29M9 18C23 12 36 12 54 16" fill="none" stroke="#FFFFFF" stroke-width="1.15" opacity="0.10"/>
  <path d="M12 10h8M12 14h5M46 47h7M43 51h10" stroke="#FDE68A" stroke-width="1.2" stroke-linecap="round" opacity="0.38"/>
  <circle cx="14" cy="43" r="1.3" fill="#A5B4FC" opacity="0.62"/>
  <circle cx="48" cy="13" r="1.5" fill="#FDE68A" opacity="0.70"/>
  <circle cx="53" cy="39" r="1" fill="#FFFFFF" opacity="0.55"/>
  <rect x="8" y="8" width="48" height="48" rx="15" fill="rgba(255,255,255,0.07)" stroke="rgba(255,255,255,0.16)"/>
  <g transform="translate(9.6 8.8) scale(2.85)" color="#FFE08A" filter="url(#ir-soft-shadow)">
    <!-- Iconify octicon:telescope-16 -->
    <path fill="currentColor" d="m14.184 1.143l1.422 2.464a1.75 1.75 0 0 1-.757 2.451L3.104 11.713a1.75 1.75 0 0 1-2.275-.702l-.447-.775a1.75 1.75 0 0 1 .53-2.32L11.682.573a1.75 1.75 0 0 1 2.502.57m-4.709 9.32l2.644 3.863a.75.75 0 1 1-1.238.848L9 12.424v2.826a.75.75 0 0 1-1.5 0v-2.826l-1.881 2.75a.75.75 0 1 1-1.238-.848l2.049-2.992a.75.75 0 0 1 .293-.253l1.809-.87a.75.75 0 0 1 .944.252m-.04-6.543l-4.97 3.39l.942 1.63l5.42-2.61Zm3.091-2.108h.001l-1.85 1.26l1.505 2.605l2.016-.97a.25.25 0 0 0 .13-.151a.25.25 0 0 0-.022-.199l-1.422-2.464a.25.25 0 0 0-.161-.119a.25.25 0 0 0-.197.038M1.756 9.157a.25.25 0 0 0-.075.33l.447.775a.25.25 0 0 0 .325.1l1.598-.769l-.83-1.436z"/>
  </g>
</svg>
