<svg xmlns="http://www.w3.org/2000/svg" viewBox="0 0 64 64" role="img" aria-label="Launch Kit">
  <title>Launch Kit</title>
  <desc>Theme icon using Iconify solar:clapperboard-play-bold-duotone.</desc>
  <defs>
    <linearGradient id="mp-bg" x1="0" y1="0" x2="1" y2="1">
      <stop offset="0" stop-color="#431407"/>
      <stop offset="0.46" stop-color="#EA580C"/>
      <stop offset="1" stop-color="#FACC15"/>
    </linearGradient>
    <linearGradient id="mp-mark" x1="0" y1="0" x2="1" y2="1">
      <stop offset="0" stop-color="#FFF7ED"/>
      <stop offset="0.58" stop-color="#FFEDD5"/>
      <stop offset="1" stop-color="#FFFFFF"/>
    </linearGradient>
    <filter id="mp-glow" x="-35%" y="-35%" width="170%" height="170%">
      <feGaussianBlur stdDeviation="1.3" result="blur"/>
      <feMerge>
        <feMergeNode in="blur"/>
        <feMergeNode in="SourceGraphic"/>
      </feMerge>
    </filter>
  </defs>
  <rect width="64" height="64" rx="18" fill="url(#mp-bg)"/>
  <circle cx="50" cy="13" r="18" fill="#FED7AA" opacity="0.22"/>
  <circle cx="13" cy="52" r="17" fill="#FDBA74" opacity="0.24"/>
  <path d="M12 49c12.8-3.1 25.3-10.5 39-25" fill="none" stroke="#FFF7ED" stroke-width="3" stroke-linecap="round" opacity="0.22"/>
  <rect x="8" y="8" width="48" height="48" rx="15" fill="rgba(255,255,255,0.10)" stroke="rgba(255,255,255,0.22)"/>
  <!-- Iconify solar:clapperboard-play-bold-duotone, scaled from 24px to the 64px app icon canvas. -->
  <g transform="translate(8 8) scale(2)" fill="url(#mp-mark)" filter="url(#mp-glow)">
    <path fill-rule="evenodd" d="M2 12c0-1.237 0-2.311.026-3.25h19.948C22 9.689 22 10.763 22 12c0 4.714 0 7.071-1.465 8.535C19.072 22 16.714 22 12 22s-7.071 0-8.536-1.465C2 19.072 2 16.714 2 12" clip-rule="evenodd" opacity=".56"/>
    <path d="M15 14.5c0-.633-.662-1.06-1.986-1.915c-1.342-.866-2.013-1.299-2.514-.98c-.5.317-.5 1.176-.5 2.895s0 2.578.5 2.896s1.172-.115 2.514-.981C14.338 15.56 15 15.133 15 14.5M12 2c1.845 0 3.33 0 4.54.088L13.098 7.25H8.401l3.5-5.25zM3.464 3.464c1.253-1.252 3.158-1.433 6.631-1.46L6.599 7.25H2.104c.147-1.764.503-2.928 1.36-3.786M21.896 7.25c-.148-1.764-.503-2.928-1.36-3.786c-.598-.597-1.344-.95-2.338-1.16L14.901 7.25z"/>
  </g>
</svg>
