<svg xmlns="http://www.w3.org/2000/svg" viewBox="0 0 64 64" role="img" aria-label="Tongyi Image">
  <title>Tongyi Image</title>
  <desc>App icon using the exact Iconify solar:gallery-wide-bold paths.</desc>
  <defs>
    <linearGradient id="tongyi-bg" x1="0" y1="0" x2="1" y2="1">
      <stop offset="0" stop-color="#A78BFA"/>
      <stop offset="0.56" stop-color="#7C3AED"/>
      <stop offset="1" stop-color="#4C1D95"/>
    </linearGradient>
    <linearGradient id="tongyi-mark" x1="0" y1="0" x2="1" y2="1">
      <stop offset="0" stop-color="#FFFFFF"/>
      <stop offset="0.68" stop-color="#EDE9FE"/>
      <stop offset="1" stop-color="#FAF5FF"/>
    </linearGradient>
    <filter id="tongyi-shadow" x="-20%" y="-20%" width="140%" height="140%">
      <feDropShadow dx="0" dy="2" stdDeviation="1.2" flood-color="#3B0764" flood-opacity="0.28"/>
    </filter>
  </defs>
  <rect width="64" height="64" rx="17" fill="url(#tongyi-bg)"/>
  <circle cx="51" cy="13" r="18" fill="#C4B5FD" opacity="0.25"/>
  <circle cx="13" cy="52" r="19" fill="#F0ABFC" opacity="0.2"/>
  <rect x="6" y="6" width="52" height="52" rx="15" fill="rgba(255,255,255,0.11)" stroke="rgba(255,255,255,0.25)" stroke-width="1.5"/>
  <!-- Iconify solar:gallery-wide-bold, exact package paths scaled to the app icon canvas. -->
  <g transform="translate(8 8) scale(2)" fill="url(#tongyi-mark)" filter="url(#tongyi-shadow)">
    <path d="M18.512 10.077c0 .739-.625 1.338-1.396 1.338s-1.395-.6-1.395-1.338s.625-1.337 1.395-1.337s1.396.598 1.396 1.337"/>
    <path fill-rule="evenodd" d="M18.036 5.532c-1.06-.136-2.414-.136-4.123-.136h-3.826c-1.71 0-3.064 0-4.123.136c-1.09.141-1.974.437-2.67 1.104c-.696.668-1.005 1.514-1.152 2.56C2 10.21 2 11.508 2 13.147v.1c0 1.639 0 2.937.142 3.953c.147 1.045.456 1.891 1.152 2.558c.696.668 1.58.964 2.67 1.104C7.024 21 8.378 21 10.087 21h3.826c1.71 0 3.064 0 4.123-.137c1.09-.14 1.974-.436 2.67-1.104c.696-.667 1.005-1.513 1.152-2.558c.142-1.016.142-2.314.142-3.953v-.1c0-1.64 0-2.937-.142-3.953c-.147-1.045-.456-1.891-1.152-2.559c-.696-.667-1.58-.963-2.67-1.104M6.15 6.858c-.936.12-1.475.347-1.87.724c-.393.378-.629.894-.755 1.791c-.1.72-.123 1.62-.128 2.796l.47-.395c1.125-.943 2.819-.889 3.875.123l3.99 3.825a1.2 1.2 0 0 0 1.491.124l.278-.187a3.606 3.606 0 0 1 4.34.25l2.407 2.078c.098-.264.173-.58.227-.965c.128-.916.13-2.124.13-3.824s-.002-2.908-.13-3.825c-.126-.897-.362-1.413-.756-1.79c-.393-.378-.933-.604-1.869-.725c-.956-.123-2.216-.125-3.99-.125h-3.72c-1.774 0-3.034.002-3.99.125" clip-rule="evenodd"/>
    <path d="M17.086 2.61c-.86-.11-1.954-.11-3.319-.11h-3.09c-1.364 0-2.459 0-3.319.11c-.89.115-1.632.358-2.221.92a2.9 2.9 0 0 0-.724 1.12c.504-.23 1.074-.366 1.714-.45c1.084-.14 2.47-.14 4.22-.14h3.914c1.75 0 3.135 0 4.22.14c.558.073 1.064.186 1.519.366a2.9 2.9 0 0 0-.692-1.035c-.589-.563-1.331-.806-2.222-.92"/>
  </g>
</svg>
