<svg xmlns="http://www.w3.org/2000/svg" viewBox="0 0 64 64" role="img" aria-label="Subtitle Craft">
  <title>Subtitle Craft</title>
  <desc>App icon using the exact Iconify solar:subtitles-bold path.</desc>
  <defs>
    <linearGradient id="subtitle-bg" x1="0" y1="0" x2="1" y2="1">
      <stop offset="0" stop-color="#FBBF24"/>
      <stop offset="0.56" stop-color="#D97706"/>
      <stop offset="1" stop-color="#92400E"/>
    </linearGradient>
    <linearGradient id="subtitle-mark" x1="0" y1="0" x2="1" y2="1">
      <stop offset="0" stop-color="#FFFBEB"/>
      <stop offset="0.7" stop-color="#FEF3C7"/>
      <stop offset="1" stop-color="#FFFFFF"/>
    </linearGradient>
    <filter id="subtitle-shadow" x="-20%" y="-20%" width="140%" height="140%">
      <feDropShadow dx="0" dy="2" stdDeviation="1.2" flood-color="#78350F" flood-opacity="0.28"/>
    </filter>
  </defs>
  <rect width="64" height="64" rx="17" fill="url(#subtitle-bg)"/>
  <circle cx="51" cy="13" r="18" fill="#FDE68A" opacity="0.28"/>
  <circle cx="13" cy="52" r="18" fill="#FDBA74" opacity="0.22"/>
  <rect x="6" y="6" width="52" height="52" rx="15" fill="rgba(255,255,255,0.12)" stroke="rgba(255,255,255,0.26)" stroke-width="1.5"/>
  <!-- Iconify solar:subtitles-bold, exact package path scaled to the app icon canvas. -->
  <g transform="translate(8 8) scale(2)" fill="url(#subtitle-mark)" filter="url(#subtitle-shadow)">
    <path fill-rule="evenodd" d="M2 12c0-3.771 0-5.657 1.172-6.828S6.229 4 10 4h4c3.771 0 5.657 0 6.828 1.172S22 8.229 22 12s0 5.657-1.172 6.828S17.771 20 14 20h-4c-3.771 0-5.657 0-6.828-1.172S2 15.771 2 12m4 3.25a.75.75 0 0 0 0 1.5h4a.75.75 0 0 0 0-1.5zM7.75 13a.75.75 0 0 0-.75-.75H6a.75.75 0 0 0 0 1.5h1a.75.75 0 0 0 .75-.75m3.75-.75a.75.75 0 0 1 0 1.5h-2a.75.75 0 0 1 0-1.5zm7.25.75a.75.75 0 0 0-.75-.75h-4a.75.75 0 0 0 0 1.5h4a.75.75 0 0 0 .75-.75m-6.25 2.25a.75.75 0 0 0 0 1.5H14a.75.75 0 0 0 0-1.5zm3.25.75a.75.75 0 0 1 .75-.75H18a.75.75 0 0 1 0 1.5h-1.5a.75.75 0 0 1-.75-.75" clip-rule="evenodd"/>
  </g>
</svg>
