<svg xmlns="http://www.w3.org/2000/svg" viewBox="0 0 64 64" role="img" aria-label="Excel Maker">
  <title>Excel Maker</title>
  <desc>App icon using the exact Iconify streamline-ultimate:microsoft-excel-logo paths.</desc>
  <defs>
    <linearGradient id="excel-bg" x1="0" y1="0" x2="1" y2="1">
      <stop offset="0" stop-color="#21A366"/>
      <stop offset="0.56" stop-color="#107C41"/>
      <stop offset="1" stop-color="#185C37"/>
    </linearGradient>
    <linearGradient id="excel-mark" x1="0" y1="0" x2="1" y2="1">
      <stop offset="0" stop-color="#F0FFF4"/>
      <stop offset="0.68" stop-color="#D1FAE5"/>
      <stop offset="1" stop-color="#FFFFFF"/>
    </linearGradient>
    <filter id="excel-shadow" x="-20%" y="-20%" width="140%" height="140%">
      <feDropShadow dx="0" dy="2" stdDeviation="1.2" flood-color="#064E3B" flood-opacity="0.26"/>
    </filter>
  </defs>
  <rect width="64" height="64" rx="17" fill="url(#excel-bg)"/>
  <circle cx="51" cy="12" r="18" fill="#86EFAC" opacity="0.24"/>
  <circle cx="12" cy="53" r="18" fill="#BBF7D0" opacity="0.22"/>
  <rect x="6" y="6" width="52" height="52" rx="15" fill="rgba(255,255,255,0.10)" stroke="rgba(255,255,255,0.24)" stroke-width="1.5"/>
  <!-- Iconify streamline-ultimate:microsoft-excel-logo, exact package paths scaled to the app icon canvas. -->
  <g transform="translate(8 8) scale(2)" fill="none" stroke="url(#excel-mark)" stroke-linecap="round" stroke-linejoin="round" stroke-width="1.5" filter="url(#excel-shadow)">
    <path d="M15.12 12h8.13m-8.13-5h8.13M4 9l5 6m0-6l-5 6M15.13 2.25V17h8.12"/>
    <path d="M7 18v3a1 1 0 0 0 1 1h14.25a1 1 0 0 0 1-1V3a1 1 0 0 0-1-1H8a1 1 0 0 0-1 1v3"/>
    <path d="M1.75 6h10s1 0 1 1v10s0 1-1 1h-10s-1 0-1-1V7s0-1 1-1"/>
  </g>
</svg>
