<svg xmlns="http://www.w3.org/2000/svg" viewBox="0 0 64 64" role="img" aria-label="Footage Gate">
  <defs>
    <linearGradient id="fg-bg" x1="0" y1="0" x2="1" y2="1">
      <stop offset="0" stop-color="#071A1F"/>
      <stop offset=".58" stop-color="#12383C"/>
      <stop offset="1" stop-color="#0F766E"/>
    </linearGradient>
    <linearGradient id="fg-mark" x1="0" y1="0" x2="1" y2="1">
      <stop offset="0" stop-color="#ECFEFF"/>
      <stop offset=".48" stop-color="#99F6E4"/>
      <stop offset="1" stop-color="#FFFFFF"/>
    </linearGradient>
    <filter id="fg-glow" x="-35%" y="-35%" width="170%" height="170%">
      <feGaussianBlur stdDeviation="1.5" result="blur"/>
      <feMerge>
        <feMergeNode in="blur"/>
        <feMergeNode in="SourceGraphic"/>
      </feMerge>
    </filter>
  </defs>
  <rect width="64" height="64" rx="18" fill="url(#fg-bg)"/>
  <circle cx="48" cy="13" r="18" fill="#5EEAD4" opacity=".18"/>
  <circle cx="12" cy="51" r="18" fill="#22D3EE" opacity=".12"/>
  <rect x="8" y="8" width="48" height="48" rx="15" fill="rgba(255,255,255,.08)" stroke="rgba(255,255,255,.18)"/>
  <g transform="translate(13 13) scale(1.18)" fill="url(#fg-mark)" filter="url(#fg-glow)">
    <path d="M13 15v8l7-4z"/>
    <path d="M26 28H6a2 2 0 0 1-2-2V12a2 2 0 0 1 2-2h20a2 2 0 0 1 2 2v14a2 2 0 0 1-2 2M6 12v14h20V12Zm0-6h20v2H6zm2-4h16v2H8z"/>
  </g>
</svg>
