<svg xmlns="http://www.w3.org/2000/svg" viewBox="0 0 64 64" role="img" aria-label="Fin Pulse">
  <title>Fin Pulse</title>
  <defs>
    <linearGradient id="fp-bg" x1="0%" y1="0%" x2="100%" y2="100%">
      <stop offset="0%" stop-color="#F8B4C0"/>
      <stop offset="55%" stop-color="#E86A7B"/>
      <stop offset="100%" stop-color="#7A1A2C"/>
    </linearGradient>
    <linearGradient id="fp-line" x1="0%" y1="0%" x2="100%" y2="0%">
      <stop offset="0%" stop-color="#FFE1E6"/>
      <stop offset="55%" stop-color="#F48AA0"/>
      <stop offset="100%" stop-color="#F4A261"/>
    </linearGradient>
    <linearGradient id="fp-up" x1="0%" y1="100%" x2="0%" y2="0%">
      <stop offset="0%" stop-color="#F48AA0"/>
      <stop offset="100%" stop-color="#F4A261"/>
    </linearGradient>
    <filter id="fp-glow" x="-20%" y="-20%" width="140%" height="140%">
      <feGaussianBlur stdDeviation="1.2" result="b"/>
      <feMerge>
        <feMergeNode in="b"/>
        <feMergeNode in="SourceGraphic"/>
      </feMerge>
    </filter>
  </defs>

  <rect x="2" y="2" width="60" height="60" rx="14" ry="14" fill="url(#fp-bg)"/>
  <rect x="2.5" y="2.5" width="59" height="59" rx="13.5" ry="13.5" fill="none" stroke="rgba(255,255,255,0.12)" stroke-width="1"/>

  <g opacity="0.18" stroke="#FFFFFF" stroke-width="0.6" stroke-linecap="round">
    <line x1="10" y1="20" x2="54" y2="20"/>
    <line x1="10" y1="32" x2="54" y2="32"/>
    <line x1="10" y1="44" x2="54" y2="44"/>
  </g>

  <g opacity="0.55">
    <rect x="14" y="36" width="5" height="12" rx="1" fill="#FBE0E5"/>
    <rect x="22" y="30" width="5" height="18" rx="1" fill="#FBE0E5"/>
    <rect x="30" y="26" width="5" height="22" rx="1" fill="#FBE0E5"/>
    <rect x="38" y="22" width="5" height="26" rx="1" fill="#FBE0E5"/>
    <rect x="46" y="18" width="5" height="30" rx="1" fill="#FBE0E5"/>
  </g>

  <path d="M8 40 L18 40 L22 28 L28 46 L34 22 L40 34 L46 18 L56 18"
        fill="none" stroke="url(#fp-line)" stroke-width="3"
        stroke-linecap="round" stroke-linejoin="round" filter="url(#fp-glow)"/>

  <g transform="translate(44,14)">
    <path d="M0 10 L6 4 L12 10" fill="none" stroke="url(#fp-up)"
          stroke-width="2.2" stroke-linecap="round" stroke-linejoin="round"/>
    <circle cx="6" cy="4" r="1.6" fill="#F4A261"/>
  </g>

  <circle cx="18" cy="40" r="1.8" fill="#FFE1E6"/>
  <circle cx="34" cy="22" r="1.8" fill="#F48AA0"/>
  <circle cx="56" cy="18" r="2.2" fill="#F4A261"/>
</svg>
