<svg xmlns="http://www.w3.org/2000/svg" viewBox="0 0 64 64" role="img" aria-label="PPT Maker">
  <title>PPT Maker</title>
  <desc>App icon using the exact Iconify ri:file-ppt-2-line path.</desc>
  <defs>
    <linearGradient id="ppt-bg" x1="0" y1="0" x2="1" y2="1">
      <stop offset="0" stop-color="#E84D2A"/>
      <stop offset="0.58" stop-color="#F0568C"/>
      <stop offset="1" stop-color="#F59E0B"/>
    </linearGradient>
    <linearGradient id="ppt-mark" x1="0" y1="0" x2="1" y2="1">
      <stop offset="0" stop-color="#FFF7ED"/>
      <stop offset="0.65" stop-color="#FFE4E6"/>
      <stop offset="1" stop-color="#FFFFFF"/>
    </linearGradient>
    <filter id="ppt-shadow" x="-20%" y="-20%" width="140%" height="140%">
      <feDropShadow dx="0" dy="2" stdDeviation="1.2" flood-color="#9A3412" flood-opacity="0.24"/>
    </filter>
  </defs>
  <rect width="64" height="64" rx="17" fill="url(#ppt-bg)"/>
  <circle cx="51" cy="12" r="18" fill="#FED7AA" opacity="0.26"/>
  <circle cx="12" cy="53" r="18" fill="#FFE4E6" opacity="0.24"/>
  <rect x="6" y="6" width="52" height="52" rx="15" fill="rgba(255,255,255,0.10)" stroke="rgba(255,255,255,0.24)" stroke-width="1.5"/>
  <!-- Iconify ri:file-ppt-2-line, exact package path scaled to the app icon canvas. -->
  <g transform="translate(4 4) scale(2.3333)" fill="url(#ppt-mark)" filter="url(#ppt-shadow)">
    <path d="m2.859 2.878l12.57-1.796a.5.5 0 0 1 .571.495v20.847a.5.5 0 0 1-.57.495L2.858 21.123a1 1 0 0 1-.859-.99V3.868a1 1 0 0 1 .859-.99ZM4 4.735v14.53l10 1.43V3.305L4 4.735ZM17 19h3V5h-3V3h4a1 1 0 0 1 1 1v16a1 1 0 0 1-1 1h-4v-2ZM5 8h8v6H7v2H5V8Zm2 2v2h4v-2H7Z"/>
  </g>
</svg>
