<svg xmlns="http://www.w3.org/2000/svg" viewBox="0 0 64 64" role="img" aria-label="Word Maker">
  <title>Word Maker</title>
  <desc>App icon using the exact Iconify grommet-icons:document-word path.</desc>
  <defs>
    <linearGradient id="word-bg" x1="0" y1="0" x2="1" y2="1">
      <stop offset="0" stop-color="#60A5FA"/>
      <stop offset="0.54" stop-color="#2563EB"/>
      <stop offset="1" stop-color="#1E3A8A"/>
    </linearGradient>
    <linearGradient id="word-mark" x1="0" y1="0" x2="1" y2="1">
      <stop offset="0" stop-color="#EFF6FF"/>
      <stop offset="0.68" stop-color="#BFDBFE"/>
      <stop offset="1" stop-color="#FFFFFF"/>
    </linearGradient>
    <filter id="word-shadow" x="-20%" y="-20%" width="140%" height="140%">
      <feDropShadow dx="0" dy="2" stdDeviation="1.2" flood-color="#1E3A8A" flood-opacity="0.28"/>
    </filter>
  </defs>
  <rect width="64" height="64" rx="17" fill="url(#word-bg)"/>
  <circle cx="51" cy="12" r="18" fill="#93C5FD" opacity="0.25"/>
  <circle cx="12" cy="53" r="18" fill="#DBEAFE" opacity="0.20"/>
  <rect x="6" y="6" width="52" height="52" rx="15" fill="rgba(255,255,255,0.10)" stroke="rgba(255,255,255,0.24)" stroke-width="1.5"/>
  <!-- Iconify grommet-icons:document-word, exact package path scaled to the app icon canvas. -->
  <g transform="translate(1 2) scale(2.35)" fill="none" stroke="url(#word-mark)" stroke-linecap="round" stroke-linejoin="round" stroke-width="2" filter="url(#word-shadow)">
    <path d="M4.998 9V1H19.5L23 4.5V23H4M18 1v5h5m-9 6l-1.5 6.75h-.25L9.5 12H9l-2.75 6.75H6L4.5 12H4l2 7h.5L9 12.5h.5L12 19h.5l2-7z"/>
  </g>
</svg>
