<svg xmlns="http://www.w3.org/2000/svg" viewBox="0 0 64 64" role="img" aria-label="E-Commerce Content">
  <title>E-Commerce Content</title>
  <desc>App icon using the exact Iconify solar:bag-heart-bold path.</desc>
  <defs>
    <linearGradient id="ecom-bg" x1="0" y1="0" x2="1" y2="1">
      <stop offset="0" stop-color="#FDBA74"/>
      <stop offset="0.52" stop-color="#F97316"/>
      <stop offset="1" stop-color="#C2410C"/>
    </linearGradient>
    <linearGradient id="ecom-mark" x1="0" y1="0" x2="1" y2="1">
      <stop offset="0" stop-color="#FFF7ED"/>
      <stop offset="0.68" stop-color="#FFE4C7"/>
      <stop offset="1" stop-color="#FFFFFF"/>
    </linearGradient>
    <filter id="ecom-shadow" x="-20%" y="-20%" width="140%" height="140%">
      <feDropShadow dx="0" dy="2" stdDeviation="1.2" flood-color="#7C2D12" flood-opacity="0.28"/>
    </filter>
  </defs>
  <rect width="64" height="64" rx="17" fill="url(#ecom-bg)"/>
  <circle cx="51" cy="13" r="18" fill="#FED7AA" opacity="0.28"/>
  <circle cx="13" cy="52" r="19" fill="#FB7185" opacity="0.22"/>
  <rect x="6" y="6" width="52" height="52" rx="15" fill="rgba(255,255,255,0.12)" stroke="rgba(255,255,255,0.26)" stroke-width="1.5"/>
  <!-- Iconify solar:bag-heart-bold, exact package path scaled to the app icon canvas. -->
  <g transform="translate(8 8) scale(2)" fill="url(#ecom-mark)" filter="url(#ecom-shadow)">
    <path fill-rule="evenodd" d="M8.25 6.015V5a3.75 3.75 0 1 1 7.5 0v1.015c1.287.039 2.075.177 2.676.676c.833.692 1.053 1.862 1.492 4.203l.75 4c.617 3.292.925 4.938.026 6.022C19.794 22 18.119 22 14.77 22H9.23c-3.35 0-5.024 0-5.924-1.084s-.59-2.73.026-6.022l.75-4c.44-2.34.659-3.511 1.492-4.203c.601-.499 1.389-.637 2.676-.676M9.75 5a2.25 2.25 0 0 1 4.5 0v1h-4.5zM9 13.197c0 .984 1.165 2.024 2.043 2.669c.42.308.63.462.957.462c.328 0 .537-.154.957-.462c.878-.645 2.043-1.685 2.043-2.67c0-1.672-1.65-2.297-3-1.005c-1.35-1.292-3-.668-3 1.006" clip-rule="evenodd"/>
  </g>
</svg>
